<?xml version="1.0" standalone="no"?>
<!DOCTYPE svg PUBLIC "-//W3C//DTD SVG 20010904//EN"
 "http://www.w3.org/TR/2001/REC-SVG-20010904/DTD/svg10.dtd">
<svg version="1.0" xmlns="http://www.w3.org/2000/svg"
 width="256.000000pt" height="95.000000pt" viewBox="0 0 256.000000 95.000000"
 preserveAspectRatio="xMidYMid meet">

<g transform="translate(0.000000,95.000000) scale(0.100000,-0.100000)"
fill="#000000" stroke="none">
<path d="M1414 901 c-52 -24 -74 -55 -74 -103 0 -59 38 -93 140 -126 77 -24
85 -30 88 -54 7 -57 -85 -62 -113 -7 -14 27 -20 29 -70 29 -29 0 -56 -4 -60
-10 -10 -16 21 -75 54 -102 57 -49 222 -47 266 2 25 28 30 25 43 -19 15 -49
77 -106 134 -122 24 -7 44 -13 45 -14 1 0 -9 -23 -22 -50 -19 -36 -25 -64 -25
-112 0 -75 16 -118 59 -158 39 -37 82 -53 146 -54 77 -1 125 16 168 61 l37 39
0 -46 0 -45 165 0 165 0 0 50 0 50 -100 0 -100 0 0 155 0 155 -65 0 -65 0 0
-52 0 -53 -20 32 c-19 32 -84 73 -115 73 -22 0 -19 5 29 54 69 69 90 117 91
208 0 69 -3 80 -30 120 -89 128 -294 121 -423 -16 -27 -29 -53 -62 -56 -74 -9
-28 -16 -27 -44 3 -22 23 -67 41 -160 65 -36 9 -43 15 -40 33 2 18 9 22 43 22
32 0 42 -5 50 -23 9 -20 16 -23 65 -20 47 3 55 6 58 24 4 30 -43 82 -86 94
-57 15 -133 12 -178 -9z m681 -36 c137 -57 154 -238 34 -369 -70 -76 -147
-109 -244 -104 -62 3 -80 8 -116 33 -148 105 -94 329 103 431 65 34 156 37
223 9z m-12 -555 c47 -37 45 -174 -3 -200 -31 -17 -85 -12 -104 9 -41 46 -39
159 5 194 28 23 70 22 102 -3z"/>
<path d="M1973 775 c-46 -19 -69 -59 -54 -91 10 -23 16 -25 49 -21 20 3 47 8
60 12 18 6 22 4 22 -14 0 -17 -6 -21 -33 -21 -40 0 -62 -17 -46 -37 22 -26 98
-3 119 36 33 63 -8 104 -81 82 -43 -13 -56 -10 -44 9 4 7 15 10 26 7 10 -3 25
3 34 13 16 17 15 19 -2 28 -13 7 -28 6 -50 -3z"/>
<path d="M1832 677 c-9 -11 -4 -24 23 -63 42 -59 44 -76 9 -72 -33 4 -58 -27
-34 -42 42 -27 110 11 110 60 0 31 -59 123 -82 128 -8 2 -20 -3 -26 -11z"/>
<path d="M30 705 l0 -205 65 0 65 0 0 85 c0 47 3 85 6 85 21 0 48 -30 84 -95
l41 -75 70 0 c38 0 69 2 69 5 0 17 -65 131 -87 153 -19 19 -23 27 -12 31 8 2
26 17 41 32 21 21 28 37 28 68 0 102 -36 121 -229 121 l-141 0 0 -205z m228
113 c14 -14 16 -54 3 -62 -5 -4 -30 -9 -55 -12 l-46 -7 0 47 0 46 43 0 c24 0
48 -5 55 -12z"/>
<path d="M125 421 c-73 -19 -105 -54 -105 -116 1 -63 40 -98 140 -125 88 -23
119 -67 65 -92 -35 -16 -76 0 -93 35 -12 24 -19 27 -60 27 -73 0 -81 -10 -54
-65 28 -59 80 -84 169 -85 72 0 108 11 145 47 l27 26 31 -26 c54 -46 166 -62
234 -33 40 17 82 60 95 99 9 24 7 29 -13 37 -13 5 -40 12 -60 15 -29 6 -36 4
-36 -9 0 -30 -37 -56 -80 -56 -54 0 -75 32 -75 116 0 52 4 67 24 88 33 35 83
35 116 0 23 -24 28 -26 71 -18 26 5 49 14 51 20 6 18 -40 77 -77 98 -26 16
-52 21 -105 21 -72 -1 -117 -16 -162 -57 -21 -20 -21 -20 -32 1 -7 11 -25 28
-41 36 -35 18 -133 27 -175 16z m103 -96 c16 -20 29 -25 64 -25 44 0 44 -1 40
-30 -2 -16 -5 -30 -7 -30 -1 0 -19 7 -39 15 -19 8 -58 20 -85 26 -58 12 -80
31 -61 54 20 24 66 19 88 -10z"/>
<path d="M1405 421 c-45 -11 -70 -27 -98 -61 -14 -16 -28 -30 -31 -30 -3 0 -6
20 -6 45 l0 45 -60 0 -60 0 0 -70 0 -70 -70 0 -69 0 -3 68 -3 67 -62 3 -63 3
0 -206 0 -205 65 0 65 0 0 80 0 80 70 0 70 0 0 -80 0 -80 60 0 60 0 0 46 0 46
39 -39 c45 -44 95 -63 167 -63 136 2 206 75 207 216 0 91 -31 153 -95 185 -45
23 -135 33 -183 20z m118 -111 c32 -25 44 -89 28 -148 -13 -47 -34 -62 -84
-62 -62 0 -97 70 -77 155 16 71 80 97 133 55z"/>
</g>
</svg>
