<svg width="30" height="30" viewBox="0 0 30 30" fill="none" xmlns="http://www.w3.org/2000/svg">
<path fill-rule="evenodd" clip-rule="evenodd" d="M20.625 1.875H9.375C8.87772 1.875 8.40081 2.07254 8.04918 2.42417C7.69754 2.77581 7.5 3.25272 7.5 3.75V15C7.5 15.2486 7.40123 15.4871 7.22541 15.6629C7.0496 15.8387 6.81114 15.9375 6.5625 15.9375C6.31386 15.9375 6.0754 15.8387 5.89959 15.6629C5.72377 15.4871 5.625 15.2486 5.625 15V3.75C5.625 2.75544 6.02009 1.80161 6.72335 1.09835C7.42661 0.395088 8.38044 0 9.375 0L20.625 0C21.6196 0 22.5734 0.395088 23.2766 1.09835C23.9799 1.80161 24.375 2.75544 24.375 3.75V15C24.375 15.2486 24.2762 15.4871 24.1004 15.6629C23.9246 15.8387 23.6861 15.9375 23.4375 15.9375C23.1889 15.9375 22.9504 15.8387 22.7746 15.6629C22.5988 15.4871 22.5 15.2486 22.5 15V3.75C22.5 3.25272 22.3025 2.77581 21.9508 2.42417C21.5992 2.07254 21.1223 1.875 20.625 1.875ZM22.5 26.25C22.5 26.7473 22.3025 27.2242 21.9508 27.5758C21.5992 27.9275 21.1223 28.125 20.625 28.125H9.375C8.87772 28.125 8.40081 27.9275 8.04918 27.5758C7.69754 27.2242 7.5 26.7473 7.5 26.25V22.5C7.5 22.2514 7.40123 22.0129 7.22541 21.8371C7.0496 21.6613 6.81114 21.5625 6.5625 21.5625C6.31386 21.5625 6.0754 21.6613 5.89959 21.8371C5.72377 22.0129 5.625 22.2514 5.625 22.5V26.25C5.625 27.2446 6.02009 28.1984 6.72335 28.9016C7.42661 29.6049 8.38044 30 9.375 30H20.625C21.6196 30 22.5734 29.6049 23.2766 28.9016C23.9799 28.1984 24.375 27.2446 24.375 26.25V22.5C24.375 22.2514 24.2762 22.0129 24.1004 21.8371C23.9246 21.6613 23.6861 21.5625 23.4375 21.5625C23.1889 21.5625 22.9504 21.6613 22.7746 21.8371C22.5988 22.0129 22.5 22.2514 22.5 22.5V26.25ZM3.21188 14.9137C3.43764 14.8096 3.61277 14.62 3.69875 14.3867C3.78472 14.1534 3.77449 13.8955 3.67031 13.6697C3.61873 13.5579 3.54563 13.4574 3.45519 13.3738C3.36475 13.2903 3.25875 13.2254 3.14323 13.1828C2.90992 13.0968 2.65202 13.1071 2.42625 13.2113C1.77563 13.5113 1.2 13.8638 0.7725 14.28C0.345 14.7038 0 15.2606 0 15.9375C0 16.9613 0.765 17.7 1.54313 18.1894C2.36813 18.7106 3.49875 19.1456 4.815 19.4944C7.45875 20.1994 11.0588 20.625 15 20.625C15.1856 20.625 15.3694 20.625 15.5512 20.6213L13.3987 22.7737C13.3116 22.8609 13.2424 22.9644 13.1953 23.0783C13.1481 23.1922 13.1238 23.3142 13.1238 23.4375C13.1238 23.5608 13.1481 23.6828 13.1953 23.7967C13.2424 23.9106 13.3116 24.0141 13.3987 24.1013C13.5748 24.2773 13.8135 24.3762 14.0625 24.3762C14.1858 24.3762 14.3078 24.3519 14.4217 24.3047C14.5356 24.2576 14.6391 24.1884 14.7263 24.1013L18.4763 20.3513C18.5636 20.2642 18.6328 20.1607 18.6801 20.0468C18.7273 19.9329 18.7517 19.8108 18.7517 19.6875C18.7517 19.5642 18.7273 19.4421 18.6801 19.3282C18.6328 19.2143 18.5636 19.1108 18.4763 19.0237L14.7263 15.2737C14.6391 15.1866 14.5356 15.1174 14.4217 15.0703C14.3078 15.0231 14.1858 14.9988 14.0625 14.9988C13.9392 14.9988 13.8172 15.0231 13.7033 15.0703C13.5894 15.1174 13.4859 15.1866 13.3987 15.2737C13.3116 15.3609 13.2424 15.4644 13.1953 15.5783C13.1481 15.6922 13.1238 15.8142 13.1238 15.9375C13.1238 16.0608 13.1481 16.1828 13.1953 16.2967C13.2424 16.4106 13.3116 16.5141 13.3987 16.6013L15.5456 18.7463L15 18.75C11.175 18.75 7.74375 18.3356 5.29875 17.6831C4.06875 17.355 3.14062 16.9819 2.5425 16.605C1.8975 16.1981 1.875 15.9488 1.875 15.9375C1.875 15.9319 1.875 15.8269 2.085 15.6187C2.30062 15.4087 2.66625 15.165 3.21 14.9137H3.21188ZM27.5738 13.2113C27.348 13.1071 27.0901 13.0968 26.8568 13.1828C26.6235 13.2688 26.4339 13.4439 26.3297 13.6697C26.2255 13.8955 26.2153 14.1534 26.3013 14.3867C26.3872 14.62 26.5624 14.8096 26.7881 14.9137C27.3356 15.165 27.6994 15.4088 27.9131 15.6206C28.125 15.8269 28.125 15.9319 28.125 15.9375C28.125 15.9431 28.125 16.0594 27.8812 16.2881C27.6337 16.5169 27.2212 16.7756 26.6119 17.0381C25.4025 17.5631 23.6194 18.0188 21.4313 18.3263C21.1885 18.3649 20.9706 18.4973 20.8245 18.6951C20.6785 18.8928 20.6159 19.14 20.6503 19.3834C20.6847 19.6268 20.8134 19.8469 21.0086 19.9964C21.2037 20.1459 21.4498 20.2127 21.6937 20.1825C23.9662 19.8637 25.9313 19.3762 27.3563 18.7612C28.0688 18.4537 28.6931 18.0919 29.1563 17.6606C29.6175 17.2312 30 16.6537 30 15.9375C30 15.2588 29.655 14.7 29.2275 14.2819C28.8 13.8638 28.2244 13.5113 27.5738 13.2113V13.2113ZM14.0625 3.75C13.8139 3.75 13.5754 3.84877 13.3996 4.02459C13.2238 4.2004 13.125 4.43886 13.125 4.6875C13.125 4.93614 13.2238 5.1746 13.3996 5.35041C13.5754 5.52623 13.8139 5.625 14.0625 5.625H15.9375C16.1861 5.625 16.4246 5.52623 16.6004 5.35041C16.7762 5.1746 16.875 4.93614 16.875 4.6875C16.875 4.43886 16.7762 4.2004 16.6004 4.02459C16.4246 3.84877 16.1861 3.75 15.9375 3.75H14.0625Z" fill="white"/>
</svg>
