<svg width="256" height="95" viewBox="0 0 256 95" fill="none" xmlns="http://www.w3.org/2000/svg">
<g clip-path="url(#clip0_41_2)">
<path d="M141.4 4.90003C136.2 7.30003 134 10.4 134 15.2C134 21.1 137.8 24.5 148 27.8C155.7 30.2 156.5 30.8 156.8 33.2C157.5 38.9 148.3 39.4 145.5 33.9C144.1 31.2 143.5 31 138.5 31C135.6 31 132.9 31.4 132.5 32C131.5 33.6 134.6 39.5 137.9 42.2C143.6 47.1 160.1 46.9 164.5 42C167 39.2 167.5 39.5 168.8 43.9C170.3 48.8 176.5 54.5 182.2 56.1C184.6 56.8 186.6 57.4 186.7 57.5C186.8 57.5 185.8 59.8 184.5 62.5C182.6 66.1 182 68.9 182 73.7C182 81.2 183.6 85.5 187.9 89.5C191.8 93.2 196.1 94.8 202.5 94.9C210.2 95 215 93.3 219.3 88.8L223 84.9V89.5V94H239.5H256V89V84H246H236V68.5V53H229.5H223V58.2V63.5L221 60.3C219.1 57.1 212.6 53 209.5 53C207.3 53 207.6 52.5 212.4 47.6C219.3 40.7 221.4 35.9 221.5 26.8C221.5 19.9 221.2 18.8 218.5 14.8C209.6 2.00003 189.1 2.70003 176.2 16.4C173.5 19.3 170.9 22.6 170.6 23.8C169.7 26.6 169 26.5 166.2 23.5C164 21.2 159.5 19.4 150.2 17C146.6 16.1 145.9 15.5 146.2 13.7C146.4 11.9 147.1 11.5 150.5 11.5C153.7 11.5 154.7 12 155.5 13.8C156.4 15.8 157.1 16.1 162 15.8C166.7 15.5 167.5 15.2 167.8 13.4C168.2 10.4 163.5 5.20003 159.2 4.00003C153.5 2.50003 145.9 2.80003 141.4 4.90003ZM209.5 8.50003C223.2 14.2 224.9 32.3 212.9 45.4C205.9 53 198.2 56.3 188.5 55.8C182.3 55.5 180.5 55 176.9 52.5C162.1 42 167.5 19.6 187.2 9.40003C193.7 6.00003 202.8 5.70003 209.5 8.50003ZM208.3 64C213 67.7 212.8 81.4 208 84C204.9 85.7 199.5 85.2 197.6 83.1C193.5 78.5 193.7 67.2 198.1 63.7C200.9 61.4 205.1 61.5 208.3 64Z" fill="white"/>
<path d="M197.3 17.5C192.7 19.4 190.4 23.4 191.9 26.6C192.9 28.9 193.5 29.1 196.8 28.7C198.8 28.4 201.5 27.9 202.8 27.5C204.6 26.9 205 27.1 205 28.9C205 30.6 204.4 31 201.7 31C197.7 31 195.5 32.7 197.1 34.7C199.3 37.3 206.9 35 209 31.1C212.3 24.8 208.2 20.7 200.9 22.9C196.6 24.2 195.3 23.9 196.5 22C196.9 21.3 198 21 199.1 21.3C200.1 21.6 201.6 21 202.5 20C204.1 18.3 204 18.1 202.3 17.2C201 16.5 199.5 16.6 197.3 17.5Z" fill="white"/>
<path d="M183.2 27.3C182.3 28.4 182.8 29.7 185.5 33.6C189.7 39.5 189.9 41.2 186.4 40.8C183.1 40.4 180.6 43.5 183 45C187.2 47.7 194 43.9 194 39C194 35.9 188.1 26.7 185.8 26.2C185 26 183.8 26.5 183.2 27.3Z" fill="white"/>
<path d="M3 24.5V45H9.5H16V36.5C16 31.8 16.3 28 16.6 28C18.7 28 21.4 31 25 37.5L29.1 45H36.1C39.9 45 43 44.8 43 44.5C43 42.8 36.5 31.4 34.3 29.2C32.4 27.3 32 26.5 33.1 26.1C33.9 25.9 35.7 24.4 37.2 22.9C39.3 20.8 40 19.2 40 16.1C40 5.9 36.4 4 17.1 4H3V24.5ZM25.8 13.2C27.2 14.6 27.4 18.6 26.1 19.4C25.6 19.8 23.1 20.3 20.6 20.6L16 21.3V16.6V12H20.3C22.7 12 25.1 12.5 25.8 13.2Z" fill="white"/>
<path d="M12.5 52.9C5.19997 54.8 1.99997 58.3 1.99997 64.5C2.09997 70.8 5.99997 74.3 16 77C24.8 79.3 27.9 83.7 22.5 86.2C19 87.8 14.9 86.2 13.2 82.7C12 80.3 11.3 80 7.19997 80C-0.100029 80 -0.900029 81 1.79997 86.5C4.59997 92.4 9.79997 94.9 18.7 95C25.9 95 29.5 93.9 33.2 90.3L35.9 87.7L39 90.3C44.4 94.9 55.6 96.5 62.4 93.6C66.4 91.9 70.6 87.6 71.9 83.7C72.8 81.3 72.6 80.8 70.6 80C69.3 79.5 66.6 78.8 64.6 78.5C61.7 77.9 61 78.1 61 79.4C61 82.4 57.3 85 53 85C47.6 85 45.5 81.8 45.5 73.4C45.5 68.2 45.9 66.7 47.9 64.6C51.2 61.1 56.2 61.1 59.5 64.6C61.8 67 62.3 67.2 66.6 66.4C69.2 65.9 71.5 65 71.7 64.4C72.3 62.6 67.7 56.7 64 54.6C61.4 53 58.8 52.5 53.5 52.5C46.3 52.6 41.8 54.1 37.3 58.2C35.2 60.2 35.2 60.2 34.1 58.1C33.4 57 31.6 55.3 30 54.5C26.5 52.7 16.7 51.8 12.5 52.9ZM22.8 62.5C24.4 64.5 25.7 65 29.2 65C33.6 65 33.6 65.1 33.2 68C33 69.6 32.7 71 32.5 71C32.4 71 30.6 70.3 28.6 69.5C26.7 68.7 22.8 67.5 20.1 66.9C14.3 65.7 12.1 63.8 14 61.5C16 59.1 20.6 59.6 22.8 62.5Z" fill="white"/>
<path d="M140.5 52.9C136 54 133.5 55.6 130.7 59C129.3 60.6 127.9 62 127.6 62C127.3 62 127 60 127 57.5V53H121H115V60V67H108H101.1L100.8 60.2L100.5 53.5L94.3 53.2L88 52.9V73.5V94H94.5H101V86V78H108H115V86V94H121H127V89.4V84.8L130.9 88.7C135.4 93.1 140.4 95 147.6 95C161.2 94.8 168.2 87.5 168.3 73.4C168.3 64.3 165.2 58.1 158.8 54.9C154.3 52.6 145.3 51.6 140.5 52.9ZM152.3 64C155.5 66.5 156.7 72.9 155.1 78.8C153.8 83.5 151.7 85 146.7 85C140.5 85 137 78 139 69.5C140.6 62.4 147 59.8 152.3 64Z" fill="white"/>
</g>
<defs>
<clipPath id="clip0_41_2">
<rect width="256" height="95" fill="white"/>
</clipPath>
</defs>
</svg>
